<svg xmlns="http://www.w3.org/2000/svg" xmlns:xlink="http://www.w3.org/1999/xlink" width="500" zoomAndPan="magnify" viewBox="0 0 375 374.999991" height="500" preserveAspectRatio="xMidYMid meet" version="1.0"><defs><g/></defs><path stroke-linecap="butt" transform="matrix(0.75, 0.000000000000000228, -0.000000000000000228, 0.75, 136.193549, 122.357615)" fill="none" stroke-linejoin="miter" d="M 0.00235112 1.002347 L 93.450274 1.002347 " stroke="#000000" stroke-width="2" stroke-opacity="1" stroke-miterlimit="4"/><g fill="#a6a7a9" fill-opacity="1"><g transform="translate(119.499431, 119.973866)"><g><path d="M 16.21875 -8.515625 L 9.546875 -14.90625 L 9.484375 -14.90625 L 9.484375 -0.3125 L 9.546875 -0.3125 L 16.21875 -6.703125 L 16.21875 0 L 8.375 0 C 7.082031 0 5.851562 -0.335938 4.6875 -1.015625 C 3.519531 -1.703125 2.570312 -2.628906 1.84375 -3.796875 C 1.125 -4.960938 0.765625 -6.242188 0.765625 -7.640625 C 0.765625 -8.710938 0.984375 -9.71875 1.421875 -10.65625 C 1.867188 -11.601562 2.503906 -12.457031 3.328125 -13.21875 C 3.953125 -13.78125 4.757812 -14.242188 5.75 -14.609375 C 6.738281 -14.972656 7.75 -15.15625 8.78125 -15.15625 L 16.21875 -15.15625 Z M 16.21875 -8.515625 "/></g></g></g><g fill="#0556a5" fill-opacity="1"><g transform="translate(136.193549, 120.519998)"><g><path d="M 16.4375 -22.09375 L 25.984375 0 L 11.796875 0 L 7.796875 -9.53125 L 5.796875 -9.53125 L 9.703125 0 L 0.453125 0 L 5.15625 -11.125 L 7.109375 -11.125 L 6.171875 -13.453125 L 9.84375 -22.09375 Z M 16.4375 -22.09375 "/></g></g></g><g fill="#0556a5" fill-opacity="1"><g transform="translate(161.29684, 120.519998)"><g><path d="M 11.453125 -21.953125 L 17.984375 -11.53125 L 10.75 -0.171875 L 1.578125 -14.609375 L 1.578125 -21.953125 Z M 31.296875 -21.953125 L 31.296875 0 L 18.84375 0 L 18.84375 -12.828125 L 24.640625 -21.953125 Z M 1.578125 -10.8125 L 1.84375 -10.8125 L 8.6875 0 L 1.578125 0 Z M 1.578125 -10.8125 "/></g></g></g><g fill="#0556a5" fill-opacity="1"><g transform="translate(191.788131, 120.519998)"><g><path d="M 14.515625 -21.953125 L 14.515625 0 L 1.953125 0 L 1.953125 -21.953125 Z M 28.796875 -14.25 C 28.796875 -12.664062 28.40625 -11.289062 27.625 -10.125 C 26.84375 -8.957031 25.832031 -8.066406 24.59375 -7.453125 C 23.363281 -6.847656 22.097656 -6.546875 20.796875 -6.546875 L 16.359375 -6.546875 L 16.359375 -21.953125 L 20.375 -21.953125 C 21.914062 -21.953125 23.332031 -21.617188 24.625 -20.953125 C 25.914062 -20.296875 26.929688 -19.382812 27.671875 -18.21875 C 28.421875 -17.050781 28.796875 -15.726562 28.796875 -14.25 Z M 28.796875 -14.25 "/></g></g></g><g fill="#a6a7a9" fill-opacity="1"><g transform="translate(135.784205, 128.054339)"><g><path d="M 0.421875 -1.8125 C 0.597656 -2.019531 0.847656 -2.125 1.171875 -2.125 C 1.671875 -2.125 1.976562 -1.898438 2.09375 -1.453125 L 1.5625 -1.359375 C 1.507812 -1.578125 1.382812 -1.6875 1.1875 -1.6875 C 1.039062 -1.6875 0.925781 -1.640625 0.84375 -1.546875 C 0.769531 -1.453125 0.734375 -1.296875 0.734375 -1.078125 C 0.734375 -0.867188 0.765625 -0.703125 0.828125 -0.578125 C 0.898438 -0.460938 1.019531 -0.40625 1.1875 -0.40625 C 1.300781 -0.40625 1.390625 -0.4375 1.453125 -0.5 C 1.515625 -0.5625 1.5625 -0.660156 1.59375 -0.796875 L 2.125 -0.703125 C 2.007812 -0.203125 1.6875 0.046875 1.15625 0.046875 C 0.84375 0.046875 0.601562 -0.046875 0.4375 -0.234375 C 0.34375 -0.335938 0.273438 -0.457031 0.234375 -0.59375 C 0.191406 -0.738281 0.171875 -0.882812 0.171875 -1.03125 C 0.171875 -1.1875 0.191406 -1.332031 0.234375 -1.46875 C 0.273438 -1.601562 0.335938 -1.71875 0.421875 -1.8125 Z M 0.421875 -1.8125 "/></g></g></g><g fill="#a6a7a9" fill-opacity="1"><g transform="translate(138.008218, 128.054339)"><g><path d="M 0.84375 0 L 0.28125 0 L 0.28125 -2.859375 L 0.84375 -2.859375 Z M 0.84375 0 "/></g></g></g><g fill="#a6a7a9" fill-opacity="1"><g transform="translate(139.120227, 128.054339)"><g><path d="M 1.078125 -2.125 C 1.410156 -2.125 1.65625 -2.015625 1.8125 -1.796875 C 1.976562 -1.578125 2.0625 -1.269531 2.0625 -0.875 L 0.6875 -0.875 C 0.695312 -0.738281 0.738281 -0.617188 0.8125 -0.515625 C 0.882812 -0.421875 0.992188 -0.375 1.140625 -0.375 C 1.234375 -0.375 1.304688 -0.394531 1.359375 -0.4375 C 1.421875 -0.488281 1.460938 -0.5625 1.484375 -0.65625 L 2.03125 -0.5625 C 1.96875 -0.363281 1.859375 -0.210938 1.703125 -0.109375 C 1.546875 -0.00390625 1.351562 0.046875 1.125 0.046875 C 0.789062 0.046875 0.539062 -0.0507812 0.375 -0.25 C 0.289062 -0.34375 0.226562 -0.457031 0.1875 -0.59375 C 0.144531 -0.738281 0.125 -0.882812 0.125 -1.03125 C 0.125 -1.21875 0.15625 -1.394531 0.21875 -1.5625 C 0.289062 -1.726562 0.398438 -1.863281 0.546875 -1.96875 C 0.691406 -2.070312 0.867188 -2.125 1.078125 -2.125 Z M 0.703125 -1.21875 L 1.515625 -1.21875 C 1.515625 -1.382812 1.472656 -1.503906 1.390625 -1.578125 C 1.304688 -1.660156 1.210938 -1.703125 1.109375 -1.703125 C 0.984375 -1.703125 0.882812 -1.65625 0.8125 -1.5625 C 0.738281 -1.46875 0.703125 -1.351562 0.703125 -1.21875 Z M 0.703125 -1.21875 "/></g></g></g><g fill="#a6a7a9" fill-opacity="1"><g transform="translate(141.34424, 128.054339)"><g><path d="M 1.09375 -2.125 C 1.351562 -2.125 1.546875 -2.085938 1.671875 -2.015625 C 1.804688 -1.953125 1.890625 -1.863281 1.921875 -1.75 C 1.953125 -1.632812 1.96875 -1.488281 1.96875 -1.3125 L 1.96875 -0.703125 C 1.96875 -0.515625 1.972656 -0.378906 1.984375 -0.296875 C 2.003906 -0.210938 2.039062 -0.113281 2.09375 0 L 1.546875 0 C 1.535156 -0.03125 1.507812 -0.109375 1.46875 -0.234375 C 1.375 -0.128906 1.273438 -0.0546875 1.171875 -0.015625 C 1.066406 0.0234375 0.953125 0.046875 0.828125 0.046875 C 0.628906 0.046875 0.460938 -0.0078125 0.328125 -0.125 C 0.203125 -0.238281 0.140625 -0.382812 0.140625 -0.5625 C 0.140625 -0.71875 0.175781 -0.835938 0.25 -0.921875 C 0.332031 -1.015625 0.425781 -1.082031 0.53125 -1.125 C 0.644531 -1.164062 0.773438 -1.195312 0.921875 -1.21875 C 1.148438 -1.257812 1.320312 -1.304688 1.4375 -1.359375 L 1.4375 -1.4375 C 1.4375 -1.53125 1.40625 -1.597656 1.34375 -1.640625 C 1.289062 -1.679688 1.195312 -1.703125 1.0625 -1.703125 C 0.945312 -1.703125 0.863281 -1.675781 0.8125 -1.625 C 0.757812 -1.582031 0.722656 -1.519531 0.703125 -1.4375 L 0.203125 -1.53125 C 0.253906 -1.738281 0.347656 -1.890625 0.484375 -1.984375 C 0.628906 -2.078125 0.832031 -2.125 1.09375 -2.125 Z M 1.09375 -0.90625 L 1 -0.890625 C 0.789062 -0.847656 0.6875 -0.757812 0.6875 -0.625 C 0.6875 -0.539062 0.710938 -0.472656 0.765625 -0.421875 C 0.828125 -0.367188 0.90625 -0.34375 1 -0.34375 C 1.070312 -0.34375 1.140625 -0.359375 1.203125 -0.390625 C 1.273438 -0.429688 1.332031 -0.484375 1.375 -0.546875 C 1.414062 -0.597656 1.4375 -0.691406 1.4375 -0.828125 L 1.4375 -1 C 1.332031 -0.96875 1.21875 -0.9375 1.09375 -0.90625 Z M 1.09375 -0.90625 "/></g></g></g><g fill="#a6a7a9" fill-opacity="1"><g transform="translate(143.568253, 128.054339)"><g><path d="M 1.25 -2.125 C 1.3125 -2.125 1.375 -2.113281 1.4375 -2.09375 C 1.5 -2.070312 1.554688 -2.046875 1.609375 -2.015625 L 1.4375 -1.546875 C 1.34375 -1.597656 1.257812 -1.625 1.1875 -1.625 C 1.082031 -1.625 1 -1.585938 0.9375 -1.515625 C 0.882812 -1.453125 0.847656 -1.351562 0.828125 -1.21875 C 0.816406 -1.09375 0.8125 -0.925781 0.8125 -0.71875 L 0.8125 0 L 0.265625 0 L 0.265625 -2.078125 L 0.765625 -2.078125 L 0.765625 -1.78125 L 0.78125 -1.78125 C 0.84375 -1.894531 0.90625 -1.976562 0.96875 -2.03125 C 1.039062 -2.09375 1.132812 -2.125 1.25 -2.125 Z M 1.25 -2.125 "/></g></g></g><g fill="#000000" fill-opacity="1"><g transform="translate(145.127949, 128.054339)"><g/></g></g><g fill="#0556a5" fill-opacity="1"><g transform="translate(146.242532, 128.054339)"><g><path d="M 2.875 0 L 2.25 0 L 2 -0.640625 L 0.859375 -0.640625 L 0.609375 0 L 0 0 L 1.109375 -2.859375 L 1.734375 -2.859375 Z M 1.03125 -1.125 L 1.8125 -1.125 L 1.421875 -2.203125 Z M 1.03125 -1.125 "/></g></g></g><g fill="#0556a5" fill-opacity="1"><g transform="translate(149.130551, 128.054339)"><g><path d="M 1.484375 -2.125 C 1.597656 -2.125 1.703125 -2.101562 1.796875 -2.0625 C 1.890625 -2.019531 1.960938 -1.96875 2.015625 -1.90625 C 2.078125 -1.84375 2.117188 -1.765625 2.140625 -1.671875 C 2.160156 -1.578125 2.171875 -1.472656 2.171875 -1.359375 L 2.171875 0 L 1.625 0 L 1.625 -1.125 C 1.625 -1.320312 1.601562 -1.46875 1.5625 -1.5625 C 1.519531 -1.65625 1.425781 -1.703125 1.28125 -1.703125 C 1.15625 -1.703125 1.054688 -1.660156 0.984375 -1.578125 C 0.910156 -1.503906 0.867188 -1.421875 0.859375 -1.328125 C 0.847656 -1.265625 0.835938 -1.207031 0.828125 -1.15625 C 0.828125 -1.101562 0.828125 -1.046875 0.828125 -0.984375 L 0.828125 0 L 0.28125 0 L 0.28125 -2.078125 L 0.796875 -2.078125 L 0.796875 -1.765625 C 0.859375 -1.859375 0.945312 -1.941406 1.0625 -2.015625 C 1.175781 -2.085938 1.316406 -2.125 1.484375 -2.125 Z M 1.484375 -2.125 "/></g></g></g><g fill="#0556a5" fill-opacity="1"><g transform="translate(151.574565, 128.054339)"><g><path d="M 1.046875 -2.125 C 1.304688 -2.125 1.507812 -2.078125 1.65625 -1.984375 C 1.800781 -1.898438 1.898438 -1.765625 1.953125 -1.578125 L 1.4375 -1.46875 C 1.414062 -1.5625 1.375 -1.628906 1.3125 -1.671875 C 1.25 -1.710938 1.160156 -1.734375 1.046875 -1.734375 C 0.796875 -1.734375 0.671875 -1.675781 0.671875 -1.5625 C 0.671875 -1.5 0.710938 -1.453125 0.796875 -1.421875 C 0.878906 -1.390625 1 -1.351562 1.15625 -1.3125 C 1.34375 -1.269531 1.492188 -1.226562 1.609375 -1.1875 C 1.734375 -1.144531 1.832031 -1.078125 1.90625 -0.984375 C 1.988281 -0.898438 2.03125 -0.785156 2.03125 -0.640625 C 2.03125 -0.523438 1.992188 -0.414062 1.921875 -0.3125 C 1.859375 -0.207031 1.753906 -0.117188 1.609375 -0.046875 C 1.472656 0.015625 1.296875 0.046875 1.078125 0.046875 C 0.835938 0.046875 0.625 -0.00390625 0.4375 -0.109375 C 0.25 -0.210938 0.132812 -0.375 0.09375 -0.59375 L 0.640625 -0.671875 C 0.691406 -0.453125 0.835938 -0.34375 1.078125 -0.34375 C 1.179688 -0.34375 1.273438 -0.359375 1.359375 -0.390625 C 1.441406 -0.421875 1.484375 -0.484375 1.484375 -0.578125 C 1.484375 -0.628906 1.460938 -0.664062 1.421875 -0.6875 C 1.378906 -0.707031 1.316406 -0.726562 1.234375 -0.75 C 0.984375 -0.8125 0.785156 -0.863281 0.640625 -0.90625 C 0.503906 -0.957031 0.390625 -1.023438 0.296875 -1.109375 C 0.210938 -1.203125 0.171875 -1.328125 0.171875 -1.484375 C 0.171875 -1.703125 0.25 -1.863281 0.40625 -1.96875 C 0.570312 -2.070312 0.785156 -2.125 1.046875 -2.125 Z M 1.046875 -2.125 "/></g></g></g><g fill="#0556a5" fill-opacity="1"><g transform="translate(153.798578, 128.054339)"><g><path d="M 0.9375 -0.71875 L 1.296875 -2.078125 L 1.828125 -2.078125 L 2.171875 -0.71875 L 2.5625 -2.078125 L 3.109375 -2.078125 L 2.4375 0 L 1.921875 0 L 1.5625 -1.34375 L 1.203125 0 L 0.671875 0 L 0.015625 -2.078125 L 0.546875 -2.078125 Z M 0.9375 -0.71875 "/></g></g></g><g fill="#0556a5" fill-opacity="1"><g transform="translate(156.910596, 128.054339)"><g><path d="M 1.078125 -2.125 C 1.410156 -2.125 1.65625 -2.015625 1.8125 -1.796875 C 1.976562 -1.578125 2.0625 -1.269531 2.0625 -0.875 L 0.6875 -0.875 C 0.695312 -0.738281 0.738281 -0.617188 0.8125 -0.515625 C 0.882812 -0.421875 0.992188 -0.375 1.140625 -0.375 C 1.234375 -0.375 1.304688 -0.394531 1.359375 -0.4375 C 1.421875 -0.488281 1.460938 -0.5625 1.484375 -0.65625 L 2.03125 -0.5625 C 1.96875 -0.363281 1.859375 -0.210938 1.703125 -0.109375 C 1.546875 -0.00390625 1.351562 0.046875 1.125 0.046875 C 0.789062 0.046875 0.539062 -0.0507812 0.375 -0.25 C 0.289062 -0.34375 0.226562 -0.457031 0.1875 -0.59375 C 0.144531 -0.738281 0.125 -0.882812 0.125 -1.03125 C 0.125 -1.21875 0.15625 -1.394531 0.21875 -1.5625 C 0.289062 -1.726562 0.398438 -1.863281 0.546875 -1.96875 C 0.691406 -2.070312 0.867188 -2.125 1.078125 -2.125 Z M 0.703125 -1.21875 L 1.515625 -1.21875 C 1.515625 -1.382812 1.472656 -1.503906 1.390625 -1.578125 C 1.304688 -1.660156 1.210938 -1.703125 1.109375 -1.703125 C 0.984375 -1.703125 0.882812 -1.65625 0.8125 -1.5625 C 0.738281 -1.46875 0.703125 -1.351562 0.703125 -1.21875 Z M 0.703125 -1.21875 "/></g></g></g><g fill="#0556a5" fill-opacity="1"><g transform="translate(159.134609, 128.054339)"><g><path d="M 1.25 -2.125 C 1.3125 -2.125 1.375 -2.113281 1.4375 -2.09375 C 1.5 -2.070312 1.554688 -2.046875 1.609375 -2.015625 L 1.4375 -1.546875 C 1.34375 -1.597656 1.257812 -1.625 1.1875 -1.625 C 1.082031 -1.625 1 -1.585938 0.9375 -1.515625 C 0.882812 -1.453125 0.847656 -1.351562 0.828125 -1.21875 C 0.816406 -1.09375 0.8125 -0.925781 0.8125 -0.71875 L 0.8125 0 L 0.265625 0 L 0.265625 -2.078125 L 0.765625 -2.078125 L 0.765625 -1.78125 L 0.78125 -1.78125 C 0.84375 -1.894531 0.90625 -1.976562 0.96875 -2.03125 C 1.039062 -2.09375 1.132812 -2.125 1.25 -2.125 Z M 1.25 -2.125 "/></g></g></g><g fill="#0556a5" fill-opacity="1"><g transform="translate(160.690618, 128.054339)"><g/></g></g><g fill="#0556a5" fill-opacity="1"><g transform="translate(161.802627, 128.054339)"><g><path d="M 1.671875 -0.921875 L 2.1875 -2.859375 L 3.046875 -2.859375 L 3.046875 0 L 2.515625 0 L 2.515625 -2.25 L 1.953125 0 L 1.390625 0 L 0.8125 -2.25 L 0.8125 0 L 0.28125 0 L 0.28125 -2.859375 L 1.140625 -2.859375 Z M 1.671875 -0.921875 "/></g></g></g><g fill="#0556a5" fill-opacity="1"><g transform="translate(165.134646, 128.054339)"><g><path d="M 1.078125 -2.125 C 1.410156 -2.125 1.65625 -2.015625 1.8125 -1.796875 C 1.976562 -1.578125 2.0625 -1.269531 2.0625 -0.875 L 0.6875 -0.875 C 0.695312 -0.738281 0.738281 -0.617188 0.8125 -0.515625 C 0.882812 -0.421875 0.992188 -0.375 1.140625 -0.375 C 1.234375 -0.375 1.304688 -0.394531 1.359375 -0.4375 C 1.421875 -0.488281 1.460938 -0.5625 1.484375 -0.65625 L 2.03125 -0.5625 C 1.96875 -0.363281 1.859375 -0.210938 1.703125 -0.109375 C 1.546875 -0.00390625 1.351562 0.046875 1.125 0.046875 C 0.789062 0.046875 0.539062 -0.0507812 0.375 -0.25 C 0.289062 -0.34375 0.226562 -0.457031 0.1875 -0.59375 C 0.144531 -0.738281 0.125 -0.882812 0.125 -1.03125 C 0.125 -1.21875 0.15625 -1.394531 0.21875 -1.5625 C 0.289062 -1.726562 0.398438 -1.863281 0.546875 -1.96875 C 0.691406 -2.070312 0.867188 -2.125 1.078125 -2.125 Z M 0.703125 -1.21875 L 1.515625 -1.21875 C 1.515625 -1.382812 1.472656 -1.503906 1.390625 -1.578125 C 1.304688 -1.660156 1.210938 -1.703125 1.109375 -1.703125 C 0.984375 -1.703125 0.882812 -1.65625 0.8125 -1.5625 C 0.738281 -1.46875 0.703125 -1.351562 0.703125 -1.21875 Z M 0.703125 -1.21875 "/></g></g></g><g fill="#0556a5" fill-opacity="1"><g transform="translate(167.358659, 128.054339)"><g><path d="M 2.1875 -2.859375 L 2.1875 0 L 1.671875 0 L 1.671875 -0.296875 C 1.578125 -0.171875 1.472656 -0.0820312 1.359375 -0.03125 C 1.242188 0.0195312 1.132812 0.046875 1.03125 0.046875 C 0.875 0.046875 0.726562 0.00390625 0.59375 -0.078125 C 0.46875 -0.160156 0.363281 -0.285156 0.28125 -0.453125 C 0.195312 -0.617188 0.15625 -0.820312 0.15625 -1.0625 C 0.15625 -1.289062 0.195312 -1.484375 0.28125 -1.640625 C 0.363281 -1.804688 0.46875 -1.925781 0.59375 -2 C 0.726562 -2.082031 0.875 -2.125 1.03125 -2.125 C 1.269531 -2.125 1.472656 -2.023438 1.640625 -1.828125 L 1.640625 -2.859375 Z M 0.734375 -1.03125 C 0.734375 -0.800781 0.773438 -0.632812 0.859375 -0.53125 C 0.941406 -0.4375 1.039062 -0.390625 1.15625 -0.390625 C 1.226562 -0.390625 1.300781 -0.40625 1.375 -0.4375 C 1.445312 -0.476562 1.515625 -0.550781 1.578125 -0.65625 C 1.617188 -0.75 1.640625 -0.890625 1.640625 -1.078125 C 1.640625 -1.273438 1.597656 -1.425781 1.515625 -1.53125 C 1.429688 -1.644531 1.320312 -1.703125 1.1875 -1.703125 L 1.15625 -1.703125 C 1 -1.691406 0.890625 -1.625 0.828125 -1.5 C 0.765625 -1.375 0.734375 -1.21875 0.734375 -1.03125 Z M 0.734375 -1.03125 "/></g></g></g><g fill="#0556a5" fill-opacity="1"><g transform="translate(169.802673, 128.054339)"><g><path d="M 0.84375 -2.359375 L 0.28125 -2.359375 L 0.28125 -2.859375 L 0.84375 -2.859375 Z M 0.84375 0 L 0.28125 0 L 0.28125 -2.078125 L 0.84375 -2.078125 Z M 0.84375 0 "/></g></g></g><g fill="#0556a5" fill-opacity="1"><g transform="translate(170.914682, 128.054339)"><g><path d="M 0.421875 -1.8125 C 0.597656 -2.019531 0.847656 -2.125 1.171875 -2.125 C 1.671875 -2.125 1.976562 -1.898438 2.09375 -1.453125 L 1.5625 -1.359375 C 1.507812 -1.578125 1.382812 -1.6875 1.1875 -1.6875 C 1.039062 -1.6875 0.925781 -1.640625 0.84375 -1.546875 C 0.769531 -1.453125 0.734375 -1.296875 0.734375 -1.078125 C 0.734375 -0.867188 0.765625 -0.703125 0.828125 -0.578125 C 0.898438 -0.460938 1.019531 -0.40625 1.1875 -0.40625 C 1.300781 -0.40625 1.390625 -0.4375 1.453125 -0.5 C 1.515625 -0.5625 1.5625 -0.660156 1.59375 -0.796875 L 2.125 -0.703125 C 2.007812 -0.203125 1.6875 0.046875 1.15625 0.046875 C 0.84375 0.046875 0.601562 -0.046875 0.4375 -0.234375 C 0.34375 -0.335938 0.273438 -0.457031 0.234375 -0.59375 C 0.191406 -0.738281 0.171875 -0.882812 0.171875 -1.03125 C 0.171875 -1.1875 0.191406 -1.332031 0.234375 -1.46875 C 0.273438 -1.601562 0.335938 -1.71875 0.421875 -1.8125 Z M 0.421875 -1.8125 "/></g></g></g><g fill="#0556a5" fill-opacity="1"><g transform="translate(173.138694, 128.054339)"><g><path d="M 1.09375 -2.125 C 1.351562 -2.125 1.546875 -2.085938 1.671875 -2.015625 C 1.804688 -1.953125 1.890625 -1.863281 1.921875 -1.75 C 1.953125 -1.632812 1.96875 -1.488281 1.96875 -1.3125 L 1.96875 -0.703125 C 1.96875 -0.515625 1.972656 -0.378906 1.984375 -0.296875 C 2.003906 -0.210938 2.039062 -0.113281 2.09375 0 L 1.546875 0 C 1.535156 -0.03125 1.507812 -0.109375 1.46875 -0.234375 C 1.375 -0.128906 1.273438 -0.0546875 1.171875 -0.015625 C 1.066406 0.0234375 0.953125 0.046875 0.828125 0.046875 C 0.628906 0.046875 0.460938 -0.0078125 0.328125 -0.125 C 0.203125 -0.238281 0.140625 -0.382812 0.140625 -0.5625 C 0.140625 -0.71875 0.175781 -0.835938 0.25 -0.921875 C 0.332031 -1.015625 0.425781 -1.082031 0.53125 -1.125 C 0.644531 -1.164062 0.773438 -1.195312 0.921875 -1.21875 C 1.148438 -1.257812 1.320312 -1.304688 1.4375 -1.359375 L 1.4375 -1.4375 C 1.4375 -1.53125 1.40625 -1.597656 1.34375 -1.640625 C 1.289062 -1.679688 1.195312 -1.703125 1.0625 -1.703125 C 0.945312 -1.703125 0.863281 -1.675781 0.8125 -1.625 C 0.757812 -1.582031 0.722656 -1.519531 0.703125 -1.4375 L 0.203125 -1.53125 C 0.253906 -1.738281 0.347656 -1.890625 0.484375 -1.984375 C 0.628906 -2.078125 0.832031 -2.125 1.09375 -2.125 Z M 1.09375 -0.90625 L 1 -0.890625 C 0.789062 -0.847656 0.6875 -0.757812 0.6875 -0.625 C 0.6875 -0.539062 0.710938 -0.472656 0.765625 -0.421875 C 0.828125 -0.367188 0.90625 -0.34375 1 -0.34375 C 1.070312 -0.34375 1.140625 -0.359375 1.203125 -0.390625 C 1.273438 -0.429688 1.332031 -0.484375 1.375 -0.546875 C 1.414062 -0.597656 1.4375 -0.691406 1.4375 -0.828125 L 1.4375 -1 C 1.332031 -0.96875 1.21875 -0.9375 1.09375 -0.90625 Z M 1.09375 -0.90625 "/></g></g></g><g fill="#0556a5" fill-opacity="1"><g transform="translate(175.362707, 128.054339)"><g><path d="M 0.84375 0 L 0.28125 0 L 0.28125 -2.859375 L 0.84375 -2.859375 Z M 0.84375 0 "/></g></g></g><g fill="#0556a5" fill-opacity="1"><g transform="translate(176.474716, 128.054339)"><g/></g></g><g fill="#0556a5" fill-opacity="1"><g transform="translate(177.586725, 128.054339)"><g><path d="M 1.984375 -2.796875 C 2.128906 -2.734375 2.25 -2.632812 2.34375 -2.5 C 2.4375 -2.363281 2.484375 -2.191406 2.484375 -1.984375 C 2.484375 -1.773438 2.4375 -1.601562 2.34375 -1.46875 C 2.25 -1.332031 2.132812 -1.234375 2 -1.171875 C 1.851562 -1.109375 1.625 -1.078125 1.3125 -1.078125 L 0.875 -1.078125 L 0.875 0 L 0.296875 0 L 0.296875 -2.859375 L 1.28125 -2.859375 C 1.46875 -2.859375 1.613281 -2.851562 1.71875 -2.84375 C 1.832031 -2.84375 1.921875 -2.828125 1.984375 -2.796875 Z M 1.890625 -1.96875 C 1.890625 -2.144531 1.804688 -2.269531 1.640625 -2.34375 C 1.578125 -2.363281 1.445312 -2.375 1.25 -2.375 L 0.875 -2.375 L 0.875 -1.5625 L 1.25 -1.5625 C 1.445312 -1.5625 1.601562 -1.585938 1.71875 -1.640625 C 1.832031 -1.703125 1.890625 -1.8125 1.890625 -1.96875 Z M 1.890625 -1.96875 "/></g></g></g><g fill="#0556a5" fill-opacity="1"><g transform="translate(180.254743, 128.054339)"><g><path d="M 0.828125 -1.015625 C 0.828125 -0.859375 0.828125 -0.75 0.828125 -0.6875 C 0.835938 -0.625 0.851562 -0.570312 0.875 -0.53125 C 0.894531 -0.476562 0.929688 -0.4375 0.984375 -0.40625 C 1.035156 -0.382812 1.097656 -0.375 1.171875 -0.375 C 1.265625 -0.375 1.347656 -0.398438 1.421875 -0.453125 C 1.503906 -0.503906 1.554688 -0.566406 1.578125 -0.640625 C 1.597656 -0.722656 1.609375 -0.890625 1.609375 -1.140625 L 1.609375 -2.078125 L 2.15625 -2.078125 L 2.15625 0 L 1.65625 0 L 1.65625 -0.3125 L 1.640625 -0.3125 C 1.566406 -0.195312 1.46875 -0.109375 1.34375 -0.046875 C 1.21875 0.015625 1.09375 0.046875 0.96875 0.046875 C 0.84375 0.046875 0.726562 0.0234375 0.625 -0.015625 C 0.519531 -0.0664062 0.441406 -0.140625 0.390625 -0.234375 C 0.347656 -0.296875 0.316406 -0.363281 0.296875 -0.4375 C 0.285156 -0.519531 0.28125 -0.617188 0.28125 -0.734375 L 0.28125 -2.078125 L 0.828125 -2.078125 Z M 0.828125 -1.015625 "/></g></g></g><g fill="#0556a5" fill-opacity="1"><g transform="translate(182.698757, 128.054339)"><g><path d="M 0.8125 -1.828125 C 0.976562 -2.023438 1.179688 -2.125 1.421875 -2.125 C 1.578125 -2.125 1.71875 -2.082031 1.84375 -2 C 1.976562 -1.925781 2.082031 -1.804688 2.15625 -1.640625 C 2.238281 -1.484375 2.28125 -1.289062 2.28125 -1.0625 C 2.28125 -0.820312 2.238281 -0.617188 2.15625 -0.453125 C 2.082031 -0.285156 1.976562 -0.160156 1.84375 -0.078125 C 1.707031 0.00390625 1.566406 0.046875 1.421875 0.046875 C 1.316406 0.046875 1.203125 0.0195312 1.078125 -0.03125 C 0.960938 -0.09375 0.863281 -0.179688 0.78125 -0.296875 L 0.78125 0 L 0.265625 0 L 0.265625 -2.859375 L 0.8125 -2.859375 Z M 0.8125 -1.078125 C 0.8125 -0.960938 0.816406 -0.863281 0.828125 -0.78125 C 0.847656 -0.707031 0.878906 -0.644531 0.921875 -0.59375 C 1.015625 -0.457031 1.132812 -0.390625 1.28125 -0.390625 C 1.40625 -0.390625 1.507812 -0.4375 1.59375 -0.53125 C 1.675781 -0.632812 1.71875 -0.800781 1.71875 -1.03125 C 1.71875 -1.238281 1.679688 -1.398438 1.609375 -1.515625 C 1.535156 -1.640625 1.421875 -1.703125 1.265625 -1.703125 C 1.128906 -1.703125 1.019531 -1.648438 0.9375 -1.546875 C 0.851562 -1.441406 0.8125 -1.285156 0.8125 -1.078125 Z M 0.8125 -1.078125 "/></g></g></g><g fill="#0556a5" fill-opacity="1"><g transform="translate(185.142771, 128.054339)"><g><path d="M 0.84375 0 L 0.28125 0 L 0.28125 -2.859375 L 0.84375 -2.859375 Z M 0.84375 0 "/></g></g></g><g fill="#0556a5" fill-opacity="1"><g transform="translate(186.25478, 128.054339)"><g><path d="M 0.84375 -2.359375 L 0.28125 -2.359375 L 0.28125 -2.859375 L 0.84375 -2.859375 Z M 0.84375 0 L 0.28125 0 L 0.28125 -2.078125 L 0.84375 -2.078125 Z M 0.84375 0 "/></g></g></g><g fill="#0556a5" fill-opacity="1"><g transform="translate(187.366789, 128.054339)"><g><path d="M 1.046875 -2.125 C 1.304688 -2.125 1.507812 -2.078125 1.65625 -1.984375 C 1.800781 -1.898438 1.898438 -1.765625 1.953125 -1.578125 L 1.4375 -1.46875 C 1.414062 -1.5625 1.375 -1.628906 1.3125 -1.671875 C 1.25 -1.710938 1.160156 -1.734375 1.046875 -1.734375 C 0.796875 -1.734375 0.671875 -1.675781 0.671875 -1.5625 C 0.671875 -1.5 0.710938 -1.453125 0.796875 -1.421875 C 0.878906 -1.390625 1 -1.351562 1.15625 -1.3125 C 1.34375 -1.269531 1.492188 -1.226562 1.609375 -1.1875 C 1.734375 -1.144531 1.832031 -1.078125 1.90625 -0.984375 C 1.988281 -0.898438 2.03125 -0.785156 2.03125 -0.640625 C 2.03125 -0.523438 1.992188 -0.414062 1.921875 -0.3125 C 1.859375 -0.207031 1.753906 -0.117188 1.609375 -0.046875 C 1.472656 0.015625 1.296875 0.046875 1.078125 0.046875 C 0.835938 0.046875 0.625 -0.00390625 0.4375 -0.109375 C 0.25 -0.210938 0.132812 -0.375 0.09375 -0.59375 L 0.640625 -0.671875 C 0.691406 -0.453125 0.835938 -0.34375 1.078125 -0.34375 C 1.179688 -0.34375 1.273438 -0.359375 1.359375 -0.390625 C 1.441406 -0.421875 1.484375 -0.484375 1.484375 -0.578125 C 1.484375 -0.628906 1.460938 -0.664062 1.421875 -0.6875 C 1.378906 -0.707031 1.316406 -0.726562 1.234375 -0.75 C 0.984375 -0.8125 0.785156 -0.863281 0.640625 -0.90625 C 0.503906 -0.957031 0.390625 -1.023438 0.296875 -1.109375 C 0.210938 -1.203125 0.171875 -1.328125 0.171875 -1.484375 C 0.171875 -1.703125 0.25 -1.863281 0.40625 -1.96875 C 0.570312 -2.070312 0.785156 -2.125 1.046875 -2.125 Z M 1.046875 -2.125 "/></g></g></g><g fill="#0556a5" fill-opacity="1"><g transform="translate(189.590802, 128.054339)"><g><path d="M 0.828125 -1.8125 C 0.921875 -1.914062 1.019531 -1.992188 1.125 -2.046875 C 1.226562 -2.097656 1.335938 -2.125 1.453125 -2.125 C 1.566406 -2.125 1.671875 -2.101562 1.765625 -2.0625 C 1.859375 -2.03125 1.929688 -1.988281 1.984375 -1.9375 C 2.109375 -1.8125 2.171875 -1.59375 2.171875 -1.28125 L 2.171875 0 L 1.625 0 L 1.625 -1.171875 C 1.625 -1.296875 1.613281 -1.394531 1.59375 -1.46875 C 1.582031 -1.539062 1.550781 -1.597656 1.5 -1.640625 C 1.445312 -1.679688 1.375 -1.703125 1.28125 -1.703125 C 1.101562 -1.703125 0.984375 -1.644531 0.921875 -1.53125 C 0.859375 -1.414062 0.828125 -1.265625 0.828125 -1.078125 L 0.828125 0 L 0.28125 0 L 0.28125 -2.859375 L 0.828125 -2.859375 Z M 0.828125 -1.8125 "/></g></g></g><g fill="#0556a5" fill-opacity="1"><g transform="translate(192.034816, 128.054339)"><g><path d="M 0.84375 -2.359375 L 0.28125 -2.359375 L 0.28125 -2.859375 L 0.84375 -2.859375 Z M 0.84375 0 L 0.28125 0 L 0.28125 -2.078125 L 0.84375 -2.078125 Z M 0.84375 0 "/></g></g></g><g fill="#0556a5" fill-opacity="1"><g transform="translate(193.146825, 128.054339)"><g><path d="M 1.484375 -2.125 C 1.597656 -2.125 1.703125 -2.101562 1.796875 -2.0625 C 1.890625 -2.019531 1.960938 -1.96875 2.015625 -1.90625 C 2.078125 -1.84375 2.117188 -1.765625 2.140625 -1.671875 C 2.160156 -1.578125 2.171875 -1.472656 2.171875 -1.359375 L 2.171875 0 L 1.625 0 L 1.625 -1.125 C 1.625 -1.320312 1.601562 -1.46875 1.5625 -1.5625 C 1.519531 -1.65625 1.425781 -1.703125 1.28125 -1.703125 C 1.15625 -1.703125 1.054688 -1.660156 0.984375 -1.578125 C 0.910156 -1.503906 0.867188 -1.421875 0.859375 -1.328125 C 0.847656 -1.265625 0.835938 -1.207031 0.828125 -1.15625 C 0.828125 -1.101562 0.828125 -1.046875 0.828125 -0.984375 L 0.828125 0 L 0.28125 0 L 0.28125 -2.078125 L 0.796875 -2.078125 L 0.796875 -1.765625 C 0.859375 -1.859375 0.945312 -1.941406 1.0625 -2.015625 C 1.175781 -2.085938 1.316406 -2.125 1.484375 -2.125 Z M 1.484375 -2.125 "/></g></g></g><g fill="#0556a5" fill-opacity="1"><g transform="translate(195.590839, 128.054339)"><g><path d="M 1.046875 -2.125 C 1.179688 -2.125 1.300781 -2.09375 1.40625 -2.03125 C 1.507812 -1.96875 1.597656 -1.882812 1.671875 -1.78125 L 1.671875 -2.078125 L 2.1875 -2.078125 L 2.1875 -0.171875 C 2.1875 0.0546875 2.160156 0.242188 2.109375 0.390625 C 2.054688 0.535156 1.957031 0.644531 1.8125 0.71875 C 1.664062 0.800781 1.460938 0.84375 1.203125 0.84375 C 0.867188 0.84375 0.625 0.78125 0.46875 0.65625 C 0.3125 0.539062 0.234375 0.367188 0.234375 0.140625 L 0.859375 0.21875 C 0.867188 0.300781 0.898438 0.351562 0.953125 0.375 C 1.003906 0.40625 1.082031 0.421875 1.1875 0.421875 C 1.351562 0.421875 1.46875 0.390625 1.53125 0.328125 C 1.601562 0.265625 1.640625 0.160156 1.640625 0.015625 L 1.640625 -0.34375 L 1.625 -0.34375 C 1.5625 -0.238281 1.472656 -0.15625 1.359375 -0.09375 C 1.253906 -0.03125 1.140625 0 1.015625 0 C 0.847656 0 0.695312 -0.0390625 0.5625 -0.125 C 0.4375 -0.21875 0.335938 -0.34375 0.265625 -0.5 C 0.191406 -0.664062 0.15625 -0.847656 0.15625 -1.046875 C 0.15625 -1.304688 0.203125 -1.515625 0.296875 -1.671875 C 0.390625 -1.835938 0.5 -1.953125 0.625 -2.015625 C 0.757812 -2.085938 0.898438 -2.125 1.046875 -2.125 Z M 0.734375 -1.078125 C 0.734375 -0.898438 0.765625 -0.75 0.828125 -0.625 C 0.898438 -0.507812 1.015625 -0.453125 1.171875 -0.453125 C 1.296875 -0.453125 1.40625 -0.5 1.5 -0.59375 C 1.601562 -0.6875 1.65625 -0.84375 1.65625 -1.0625 C 1.65625 -1.226562 1.617188 -1.375 1.546875 -1.5 C 1.472656 -1.632812 1.347656 -1.703125 1.171875 -1.703125 C 1.003906 -1.703125 0.890625 -1.632812 0.828125 -1.5 C 0.765625 -1.375 0.734375 -1.234375 0.734375 -1.078125 Z M 0.734375 -1.078125 "/></g></g></g><g fill="#0556a5" fill-opacity="1"><g transform="translate(198.034853, 128.054339)"><g/></g></g><g fill="#0556a5" fill-opacity="1"><g transform="translate(199.146862, 128.054339)"><g><path d="M 0.890625 -0.484375 L 2.328125 -0.484375 L 2.328125 0 L 0.3125 0 L 0.3125 -2.859375 L 0.890625 -2.859375 Z M 0.890625 -0.484375 "/></g></g></g><g fill="#0556a5" fill-opacity="1"><g transform="translate(201.590876, 128.054339)"><g><path d="M 0.859375 -2.078125 L 1.234375 -2.078125 L 1.234375 -1.640625 L 0.859375 -1.640625 L 0.859375 -0.71875 C 0.859375 -0.632812 0.863281 -0.570312 0.875 -0.53125 C 0.882812 -0.488281 0.898438 -0.457031 0.921875 -0.4375 C 0.941406 -0.414062 0.972656 -0.40625 1.015625 -0.40625 C 1.066406 -0.40625 1.140625 -0.421875 1.234375 -0.453125 L 1.28125 -0.03125 C 1.226562 -0.0078125 1.160156 0.00390625 1.078125 0.015625 C 0.992188 0.0351562 0.921875 0.046875 0.859375 0.046875 C 0.753906 0.046875 0.660156 0.03125 0.578125 0 C 0.492188 -0.0390625 0.4375 -0.0859375 0.40625 -0.140625 C 0.363281 -0.210938 0.335938 -0.285156 0.328125 -0.359375 C 0.316406 -0.441406 0.3125 -0.546875 0.3125 -0.671875 L 0.3125 -1.640625 L 0.0625 -1.640625 L 0.0625 -2.078125 L 0.3125 -2.078125 L 0.3125 -2.484375 L 0.859375 -2.8125 Z M 0.859375 -2.078125 "/></g></g></g><g fill="#0556a5" fill-opacity="1"><g transform="translate(202.922886, 128.054339)"><g><path d="M 2.1875 -2.859375 L 2.1875 0 L 1.671875 0 L 1.671875 -0.296875 C 1.578125 -0.171875 1.472656 -0.0820312 1.359375 -0.03125 C 1.242188 0.0195312 1.132812 0.046875 1.03125 0.046875 C 0.875 0.046875 0.726562 0.00390625 0.59375 -0.078125 C 0.46875 -0.160156 0.363281 -0.285156 0.28125 -0.453125 C 0.195312 -0.617188 0.15625 -0.820312 0.15625 -1.0625 C 0.15625 -1.289062 0.195312 -1.484375 0.28125 -1.640625 C 0.363281 -1.804688 0.46875 -1.925781 0.59375 -2 C 0.726562 -2.082031 0.875 -2.125 1.03125 -2.125 C 1.269531 -2.125 1.472656 -2.023438 1.640625 -1.828125 L 1.640625 -2.859375 Z M 0.734375 -1.03125 C 0.734375 -0.800781 0.773438 -0.632812 0.859375 -0.53125 C 0.941406 -0.4375 1.039062 -0.390625 1.15625 -0.390625 C 1.226562 -0.390625 1.300781 -0.40625 1.375 -0.4375 C 1.445312 -0.476562 1.515625 -0.550781 1.578125 -0.65625 C 1.617188 -0.75 1.640625 -0.890625 1.640625 -1.078125 C 1.640625 -1.273438 1.597656 -1.425781 1.515625 -1.53125 C 1.429688 -1.644531 1.320312 -1.703125 1.1875 -1.703125 L 1.15625 -1.703125 C 1 -1.691406 0.890625 -1.625 0.828125 -1.5 C 0.765625 -1.375 0.734375 -1.21875 0.734375 -1.03125 Z M 0.734375 -1.03125 "/></g></g></g><g fill="#0556a5" fill-opacity="1"><g transform="translate(205.3669, 128.054339)"><g><path d="M 0.84375 0 L 0.28125 0 L 0.28125 -0.546875 L 0.84375 -0.546875 Z M 0.84375 0 "/></g></g></g></svg>