<svg width="300" height="91" viewBox="0 0 300 91" fill="none" xmlns="http://www.w3.org/2000/svg">
<g clip-path="url(#clip0_2_651)">
<path d="M300 0H0V91H300V0Z" fill="white"/>
<path d="M48 74H257" stroke="black" stroke-width="1.5"/>
<path d="M47 40.7165L27.5713 21.7423H27.3893V65.0722H27.5713L47 46.098V66H24.1587C20.3936 66 16.8104 65.0026 13.4206 62.9846C10.0195 60.9433 7.25531 58.1946 5.13954 54.7268C3.04651 51.2707 2 47.4665 2 43.3145C2 40.1366 2.63701 37.1443 3.91103 34.3608C5.20779 31.5542 7.06194 29.0141 9.46208 26.7525C11.2821 25.0824 13.6254 23.7139 16.5146 22.6236C19.3926 21.545 22.3388 21 25.3417 21H47V40.7165Z" fill="#A6A7A9"/>
<path d="M96.9356 0L125.446 65.98H83.077L71.1316 37.5162H65.1588L76.8243 65.98H49.2005L63.2457 32.7567H69.0784L66.2787 25.8041L77.2443 0H96.9356Z" fill="#0556A5"/>
<path d="M157.018 0.419952L176.523 31.5435L154.918 65.4667L127.528 22.3511V0.419952H157.018ZM216.279 0.419952V65.98H179.089V27.6705L196.401 0.419952H216.279ZM127.528 33.6899H128.321L148.759 65.98H127.528V33.6899Z" fill="#0556A5"/>
<path d="M257.222 0.419952V65.98H219.706V0.419952H257.222ZM299.871 23.4243C299.871 28.1605 298.704 32.2667 296.371 35.743C294.038 39.231 291.017 41.8908 287.319 43.7222C283.644 45.5304 279.865 46.4286 275.98 46.4286H262.728V0.419952H274.72C279.316 0.419952 283.551 1.42318 287.412 3.40632C291.262 5.36612 294.295 8.09584 296.511 11.5722C298.751 15.0601 299.871 19.0147 299.871 23.4243Z" fill="#0556A5"/>
<path d="M47.8847 83.0675C48.4097 82.4492 49.1563 82.1342 50.1245 82.1342C51.6177 82.1342 52.5276 82.8108 52.8775 84.1407L51.291 84.4207C51.1277 83.7674 50.7544 83.4408 50.1712 83.4408C49.7279 83.4408 49.3896 83.5808 49.1446 83.8607C48.9229 84.1407 48.818 84.6073 48.818 85.2606C48.818 85.8905 48.9113 86.3805 49.0979 86.7538C49.3079 87.1037 49.6695 87.267 50.1712 87.267C50.5095 87.267 50.7778 87.1737 50.9644 86.9871C51.1511 86.8004 51.291 86.5088 51.3844 86.1005L52.9709 86.3805C52.6209 87.8737 51.6643 88.6202 50.0778 88.6202C49.1446 88.6202 48.4213 88.3403 47.9314 87.7803C47.6514 87.477 47.4414 87.1154 47.3248 86.7071C47.1965 86.2755 47.1381 85.8439 47.1381 85.4006C47.1381 84.9339 47.1965 84.5023 47.3248 84.094C47.4414 83.6974 47.6281 83.3474 47.8847 83.0675Z" fill="#A6A7A9"/>
<path d="M55.7863 88.4803H54.1064V79.9411H55.7863V88.4803Z" fill="#A6A7A9"/>
<path d="M59.807 82.1342C60.7986 82.1342 61.5335 82.4609 62.0001 83.1141C62.4901 83.7674 62.7467 84.689 62.7467 85.8672H58.6405C58.6638 86.2755 58.7921 86.6371 59.0138 86.9404C59.2238 87.2204 59.5504 87.3604 59.9937 87.3604C60.2736 87.3604 60.4836 87.302 60.6469 87.1737C60.8336 87.0221 60.9502 86.8004 61.0202 86.5205L62.6534 86.8004C62.4668 87.3954 62.1401 87.8503 61.6735 88.1536C61.2069 88.4686 60.6236 88.6202 59.947 88.6202C58.9438 88.6202 58.1972 88.3286 57.7072 87.7337C57.4506 87.4537 57.2639 87.1154 57.1473 86.7071C57.019 86.2755 56.9606 85.8439 56.9606 85.4006C56.9606 84.8406 57.054 84.3157 57.2406 83.8141C57.4506 83.3241 57.7772 82.9158 58.2205 82.6009C58.6521 82.2975 59.1771 82.1342 59.807 82.1342ZM58.6871 84.8406H61.1136C61.1136 84.3507 60.9852 83.989 60.7403 83.7674C60.4836 83.5224 60.2037 83.3941 59.9004 83.3941C59.5271 83.3941 59.2238 83.5341 59.0138 83.8141C58.7921 84.094 58.6871 84.444 58.6871 84.8406Z" fill="#A6A7A9"/>
<path d="M66.4954 82.1342C67.2654 82.1342 67.8486 82.2509 68.2219 82.4609C68.6186 82.6475 68.8752 82.9158 68.9685 83.2541C69.0619 83.6041 69.1085 84.0357 69.1085 84.5607V86.3805C69.1085 86.9404 69.1202 87.3487 69.1552 87.5937C69.2135 87.8503 69.3185 88.142 69.4818 88.4803H67.8486C67.8136 88.3869 67.732 88.1536 67.6153 87.7803C67.3354 88.0953 67.0321 88.3169 66.7288 88.4336C66.4138 88.5502 66.0755 88.6202 65.7022 88.6202C65.1073 88.6202 64.6056 88.4569 64.209 88.107C63.8357 87.7687 63.6491 87.337 63.6491 86.8004C63.6491 86.3338 63.7541 85.9838 63.9757 85.7272C64.2207 85.4472 64.5007 85.2489 64.8156 85.1206C65.1539 85.0039 65.5389 84.9106 65.9822 84.8406C66.6588 84.724 67.172 84.584 67.522 84.4207V84.1874C67.522 83.9074 67.4287 83.7091 67.242 83.5808C67.0787 83.4641 66.7988 83.3941 66.4021 83.3941C66.0522 83.3941 65.8072 83.4758 65.6555 83.6274C65.4922 83.7557 65.3872 83.9424 65.3289 84.1874L63.8357 83.9074C63.9874 83.2891 64.2673 82.8342 64.6756 82.5542C65.1073 82.2742 65.7139 82.1342 66.4954 82.1342ZM66.4954 85.7739L66.2155 85.8205C65.5855 85.9488 65.2822 86.2172 65.2822 86.6138C65.2822 86.8704 65.3522 87.0687 65.5155 87.2204C65.7022 87.3837 65.9355 87.4537 66.2155 87.4537C66.4255 87.4537 66.6354 87.407 66.8221 87.3137C67.0321 87.1971 67.207 87.0337 67.3354 86.8471C67.452 86.6954 67.522 86.4155 67.522 86.0072V85.4939C67.207 85.5872 66.8687 85.6805 66.4954 85.7739Z" fill="#A6A7A9"/>
<path d="M73.6037 82.1342C73.7904 82.1342 73.977 82.1692 74.1637 82.2276C74.3503 82.2975 74.5137 82.3675 74.677 82.4609L74.1637 83.8607C73.8837 83.7091 73.6271 83.6274 73.4171 83.6274C73.1021 83.6274 72.8572 83.7441 72.6705 83.954C72.5072 84.1407 72.4022 84.444 72.3439 84.8406C72.3089 85.2139 72.2972 85.7155 72.2972 86.3338V88.4803H70.664V82.2742H72.1572V83.1608H72.2039C72.3905 82.8225 72.5772 82.5775 72.7638 82.4142C72.9738 82.2276 73.2538 82.1342 73.6037 82.1342Z" fill="#A6A7A9"/>
<path d="M86.443 88.4803H84.5765L83.8299 86.5671H80.4236L79.677 88.4803H77.8572L81.1702 79.9411H83.0367L86.443 88.4803ZM80.9369 85.1206H83.27L82.1034 81.9009L80.9369 85.1206Z" fill="#0556A5"/>
<path d="M90.9148 82.1342C91.2531 82.1342 91.5681 82.2042 91.848 82.3209C92.128 82.4492 92.338 82.6009 92.5013 82.7875C92.6879 82.9741 92.8046 83.2075 92.8746 83.4874C92.9329 83.7674 92.9679 84.0824 92.9679 84.4207V88.4803H91.3348V85.1206C91.3348 84.5373 91.2648 84.094 91.1481 83.8141C91.0198 83.5341 90.7398 83.3941 90.3082 83.3941C89.9349 83.3941 89.6316 83.5224 89.4216 83.7674C89.2 83.989 89.0716 84.234 89.0483 84.514C89.0133 84.7006 88.9783 84.8756 88.955 85.0273C88.955 85.1906 88.955 85.3539 88.955 85.5406V88.4803H87.3218V82.2742H88.8617V83.2075C89.0483 82.9275 89.305 82.6825 89.6549 82.4609C89.9932 82.2509 90.4132 82.1342 90.9148 82.1342Z" fill="#0556A5"/>
<path d="M96.9069 82.1342C97.6768 82.1342 98.2834 82.2742 98.7267 82.5542C99.1583 82.8108 99.45 83.2075 99.6133 83.7674L98.0735 84.094C98.0035 83.8141 97.8868 83.6157 97.7002 83.4874C97.5135 83.3708 97.2452 83.3008 96.9069 83.3008C96.1603 83.3008 95.787 83.4758 95.787 83.8141C95.787 84.0007 95.9037 84.1407 96.1603 84.234C96.4053 84.3273 96.7669 84.444 97.2335 84.5607C97.7935 84.689 98.2368 84.8173 98.5867 84.9339C98.96 85.0623 99.2517 85.2606 99.4733 85.5406C99.7183 85.7972 99.8466 86.1355 99.8466 86.5671C99.8466 86.9171 99.73 87.2437 99.52 87.547C99.3333 87.862 99.0184 88.1303 98.5867 88.3403C98.1784 88.5269 97.6535 88.6202 97.0002 88.6202C96.277 88.6202 95.647 88.4686 95.0871 88.1536C94.5272 87.8503 94.1772 87.3604 94.0605 86.7071L95.6937 86.4738C95.8454 87.1271 96.277 87.4537 97.0002 87.4537C97.3035 87.4537 97.5835 87.407 97.8401 87.3137C98.0851 87.2204 98.2134 87.0337 98.2134 86.7538C98.2134 86.6021 98.1435 86.4971 98.0268 86.4271C97.8985 86.3688 97.7118 86.3105 97.4669 86.2405C96.7203 86.0538 96.1253 85.9022 95.6937 85.7739C95.2854 85.6222 94.9471 85.4239 94.6671 85.1673C94.4105 84.8873 94.2938 84.514 94.2938 84.0474C94.2938 83.3941 94.5272 82.9158 94.9938 82.6009C95.4837 82.2975 96.1253 82.1342 96.9069 82.1342Z" fill="#0556A5"/>
<path d="M103.222 86.3338L104.295 82.2742H105.882L106.908 86.3338L108.075 82.2742H109.708L107.702 88.4803H106.162L105.089 84.4673L104.015 88.4803H102.429L100.469 82.2742H102.056L103.222 86.3338Z" fill="#0556A5"/>
<path d="M112.936 82.1342C113.927 82.1342 114.662 82.4609 115.129 83.1141C115.619 83.7674 115.875 84.689 115.875 85.8672H111.769C111.792 86.2755 111.921 86.6371 112.142 86.9404C112.352 87.2204 112.679 87.3604 113.122 87.3604C113.402 87.3604 113.612 87.302 113.775 87.1737C113.962 87.0221 114.079 86.8004 114.149 86.5205L115.782 86.8004C115.595 87.3954 115.269 87.8503 114.802 88.1536C114.335 88.4686 113.752 88.6202 113.076 88.6202C112.072 88.6202 111.326 88.3286 110.836 87.7337C110.579 87.4537 110.393 87.1154 110.276 86.7071C110.148 86.2755 110.089 85.8439 110.089 85.4006C110.089 84.8406 110.183 84.3157 110.369 83.8141C110.579 83.3241 110.906 82.9158 111.349 82.6009C111.781 82.2975 112.306 82.1342 112.936 82.1342ZM111.816 84.8406H114.242C114.242 84.3507 114.114 83.989 113.869 83.7674C113.612 83.5224 113.332 83.3941 113.029 83.3941C112.656 83.3941 112.352 83.5341 112.142 83.8141C111.921 84.094 111.816 84.444 111.816 84.8406Z" fill="#0556A5"/>
<path d="M120.091 82.1342C120.277 82.1342 120.464 82.1692 120.651 82.2276C120.837 82.2975 121.001 82.3675 121.164 82.4609L120.651 83.8607C120.371 83.7091 120.114 83.6274 119.904 83.6274C119.589 83.6274 119.344 83.7441 119.157 83.954C118.994 84.1407 118.889 84.444 118.831 84.8406C118.796 85.2139 118.784 85.7155 118.784 86.3338V88.4803H117.151V82.2742H118.644V83.1608H118.691C118.877 82.8225 119.064 82.5775 119.251 82.4142C119.461 82.2276 119.741 82.1342 120.091 82.1342Z" fill="#0556A5"/>
<path d="M129.318 85.7272L130.858 79.9411H133.424V88.4803H131.838V81.7609L130.158 88.4803H128.478L126.752 81.7609V88.4803H125.165V79.9411H127.732L129.318 85.7272Z" fill="#0556A5"/>
<path d="M137.496 82.1342C138.487 82.1342 139.222 82.4609 139.689 83.1141C140.179 83.7674 140.435 84.689 140.435 85.8672H136.329C136.352 86.2755 136.481 86.6371 136.702 86.9404C136.912 87.2204 137.239 87.3604 137.682 87.3604C137.962 87.3604 138.172 87.302 138.336 87.1737C138.522 87.0221 138.639 86.8004 138.709 86.5205L140.342 86.8004C140.155 87.3954 139.829 87.8503 139.362 88.1536C138.895 88.4686 138.312 88.6202 137.636 88.6202C136.632 88.6202 135.886 88.3286 135.396 87.7337C135.139 87.4537 134.953 87.1154 134.836 86.7071C134.708 86.2755 134.649 85.8439 134.649 85.4006C134.649 84.8406 134.743 84.3157 134.929 83.8141C135.139 83.3241 135.466 82.9158 135.909 82.6009C136.341 82.2975 136.866 82.1342 137.496 82.1342ZM136.376 84.8406H138.802C138.802 84.3507 138.674 83.989 138.429 83.7674C138.172 83.5224 137.892 83.3941 137.589 83.3941C137.216 83.3941 136.912 83.5341 136.702 83.8141C136.481 84.094 136.376 84.444 136.376 84.8406Z" fill="#0556A5"/>
<path d="M147.45 79.9411V88.4803H145.91V87.5937C145.63 87.967 145.315 88.2353 144.977 88.3869C144.627 88.5386 144.301 88.6202 143.997 88.6202C143.531 88.6202 143.087 88.4919 142.691 88.2469C142.317 88.002 142.003 87.6287 141.758 87.1271C141.501 86.6371 141.384 86.0305 141.384 85.3072C141.384 84.6306 141.501 84.0474 141.758 83.5807C142.003 83.0908 142.317 82.7292 142.691 82.5075C143.087 82.2625 143.531 82.1342 143.997 82.1342C144.709 82.1342 145.315 82.4375 145.817 83.0208V79.9411H147.45ZM143.111 85.4006C143.111 86.0888 143.227 86.5904 143.484 86.8937C143.729 87.1737 144.021 87.3137 144.371 87.3137C144.581 87.3137 144.802 87.267 145.024 87.1737C145.234 87.0571 145.444 86.8354 145.63 86.5205C145.747 86.2405 145.817 85.8205 145.817 85.2606C145.817 84.6773 145.689 84.2224 145.444 83.9074C145.187 83.5691 144.861 83.3941 144.464 83.3941H144.371C143.904 83.4291 143.577 83.6274 143.391 84.0007C143.204 84.374 143.111 84.8406 143.111 85.4006Z" fill="#0556A5"/>
<path d="M150.736 81.4343H149.056V79.9411H150.736V81.4343ZM150.736 88.4803H149.056V82.2742H150.736V88.4803Z" fill="#0556A5"/>
<path d="M152.797 83.0675C153.322 82.4492 154.069 82.1342 155.037 82.1342C156.53 82.1342 157.44 82.8108 157.79 84.1407L156.203 84.4207C156.04 83.7674 155.667 83.4408 155.084 83.4408C154.64 83.4408 154.302 83.5808 154.057 83.8607C153.835 84.1407 153.73 84.6073 153.73 85.2606C153.73 85.8905 153.824 86.3805 154.01 86.7538C154.22 87.1037 154.582 87.267 155.084 87.267C155.422 87.267 155.69 87.1737 155.877 86.9871C156.063 86.8004 156.203 86.5088 156.297 86.1005L157.883 86.3805C157.533 87.8737 156.577 88.6202 154.99 88.6202C154.057 88.6202 153.334 88.3403 152.844 87.7803C152.564 87.477 152.354 87.1154 152.237 86.7071C152.109 86.2755 152.05 85.8439 152.05 85.4006C152.05 84.9339 152.109 84.5023 152.237 84.094C152.354 83.6974 152.54 83.3474 152.797 83.0675Z" fill="#0556A5"/>
<path d="M161.445 82.1342C162.215 82.1342 162.798 82.2509 163.172 82.4609C163.568 82.6475 163.825 82.9158 163.918 83.2541C164.012 83.6041 164.058 84.0357 164.058 84.5607V86.3805C164.058 86.9404 164.07 87.3487 164.105 87.5937C164.163 87.8503 164.268 88.142 164.432 88.4803H162.798C162.763 88.3869 162.682 88.1536 162.565 87.7803C162.285 88.0953 161.982 88.3169 161.679 88.4336C161.364 88.5502 161.025 88.6202 160.652 88.6202C160.057 88.6202 159.555 88.4569 159.159 88.107C158.785 87.7687 158.599 87.337 158.599 86.8004C158.599 86.3338 158.704 85.9838 158.925 85.7272C159.17 85.4472 159.45 85.2489 159.765 85.1206C160.104 85.0039 160.489 84.9106 160.932 84.8406C161.609 84.724 162.122 84.584 162.472 84.4207V84.1874C162.472 83.9074 162.378 83.7091 162.192 83.5808C162.028 83.4641 161.749 83.3941 161.352 83.3941C161.002 83.3941 160.757 83.4758 160.605 83.6274C160.442 83.7557 160.337 83.9424 160.279 84.1874L158.785 83.9074C158.937 83.2891 159.217 82.8342 159.625 82.5542C160.057 82.2742 160.664 82.1342 161.445 82.1342ZM161.445 85.7739L161.165 85.8205C160.535 85.9488 160.232 86.2172 160.232 86.6138C160.232 86.8704 160.302 87.0687 160.465 87.2204C160.652 87.3837 160.885 87.4537 161.165 87.4537C161.375 87.4537 161.585 87.407 161.772 87.3137C161.982 87.1971 162.157 87.0337 162.285 86.8471C162.402 86.6954 162.472 86.4155 162.472 86.0072V85.4939C162.157 85.5872 161.819 85.6805 161.445 85.7739Z" fill="#0556A5"/>
<path d="M167.34 88.4803H165.661V79.9411H167.34V88.4803Z" fill="#0556A5"/>
<path d="M177.388 80.1278C177.82 80.3144 178.182 80.6177 178.462 81.0143C178.742 81.4226 178.882 81.9359 178.882 82.5542C178.882 83.1841 178.742 83.6974 178.462 84.094C178.182 84.5023 177.832 84.794 177.435 84.9806C176.992 85.1673 176.315 85.2606 175.382 85.2606H174.075V88.4803H172.349V79.9411H175.289C175.849 79.9411 176.28 79.9644 176.595 79.9878C176.934 79.9878 177.202 80.0344 177.388 80.1278ZM177.109 82.6008C177.109 82.0759 176.852 81.7026 176.362 81.481C176.175 81.4226 175.779 81.3876 175.195 81.3876H174.075V83.8141H175.195C175.779 83.8141 176.245 83.7441 176.595 83.5807C176.934 83.3941 177.109 83.0675 177.109 82.6008Z" fill="#0556A5"/>
<path d="M181.903 85.4472C181.903 85.9138 181.903 86.2405 181.903 86.4271C181.926 86.6138 181.973 86.7771 182.043 86.8937C182.101 87.0571 182.206 87.1737 182.37 87.267C182.521 87.337 182.708 87.3604 182.93 87.3604C183.21 87.3604 183.455 87.2904 183.676 87.1271C183.921 86.9754 184.073 86.7888 184.143 86.5671C184.201 86.3221 184.236 85.8205 184.236 85.0739V82.2742H185.869V88.4803H184.376V87.547H184.33C184.108 87.897 183.816 88.1536 183.443 88.3403C183.07 88.5269 182.696 88.6202 182.323 88.6202C181.95 88.6202 181.6 88.5502 181.296 88.4336C180.982 88.2819 180.748 88.0603 180.597 87.7803C180.468 87.5937 180.375 87.3954 180.317 87.1737C180.282 86.9287 180.27 86.6371 180.27 86.2871V82.2742H181.903V85.4472Z" fill="#0556A5"/>
<path d="M189.155 83.0208C189.645 82.4375 190.252 82.1342 190.975 82.1342C191.442 82.1342 191.862 82.2625 192.235 82.5075C192.632 82.7292 192.946 83.0908 193.168 83.5807C193.413 84.0474 193.541 84.6306 193.541 85.3072C193.541 86.0305 193.413 86.6371 193.168 87.1271C192.946 87.6287 192.632 88.002 192.235 88.2469C191.827 88.4919 191.407 88.6202 190.975 88.6202C190.66 88.6202 190.322 88.5386 189.948 88.3869C189.599 88.2003 189.307 87.9436 189.062 87.5937V88.4803H187.522V79.9411H189.155V83.0208ZM189.155 85.2606C189.155 85.6105 189.167 85.9022 189.202 86.1472C189.26 86.3688 189.354 86.5554 189.482 86.7071C189.762 87.1154 190.112 87.3137 190.555 87.3137C190.928 87.3137 191.232 87.1737 191.488 86.8937C191.733 86.5904 191.862 86.0888 191.862 85.4006C191.862 84.7823 191.745 84.304 191.535 83.954C191.313 83.5807 190.975 83.3941 190.508 83.3941C190.1 83.3941 189.773 83.5574 189.529 83.8607C189.272 84.1757 189.155 84.6423 189.155 85.2606Z" fill="#0556A5"/>
<path d="M196.547 88.4803H194.867V79.9411H196.547V88.4803Z" fill="#0556A5"/>
<path d="M199.868 81.4343H198.188V79.9411H199.868V81.4343ZM199.868 88.4803H198.188V82.2742H199.868V88.4803Z" fill="#0556A5"/>
<path d="M203.796 82.1342C204.565 82.1342 205.172 82.2742 205.615 82.5542C206.047 82.8108 206.339 83.2075 206.502 83.7674L204.962 84.094C204.892 83.8141 204.775 83.6157 204.589 83.4874C204.402 83.3708 204.134 83.3008 203.796 83.3008C203.049 83.3008 202.676 83.4758 202.676 83.8141C202.676 84.0007 202.792 84.1407 203.049 84.234C203.294 84.3273 203.656 84.444 204.122 84.5607C204.682 84.689 205.125 84.8173 205.475 84.9339C205.849 85.0623 206.14 85.2606 206.362 85.5406C206.607 85.7972 206.735 86.1355 206.735 86.5671C206.735 86.9171 206.619 87.2437 206.409 87.547C206.222 87.862 205.907 88.1303 205.475 88.3403C205.067 88.5269 204.542 88.6202 203.889 88.6202C203.166 88.6202 202.536 88.4686 201.976 88.1536C201.416 87.8503 201.066 87.3604 200.949 86.7071L202.582 86.4738C202.734 87.1271 203.166 87.4537 203.889 87.4537C204.192 87.4537 204.472 87.407 204.729 87.3137C204.974 87.2204 205.102 87.0337 205.102 86.7538C205.102 86.6021 205.032 86.4971 204.915 86.4271C204.787 86.3688 204.6 86.3105 204.356 86.2405C203.609 86.0538 203.014 85.9022 202.582 85.7739C202.174 85.6222 201.836 85.4239 201.556 85.1673C201.299 84.8873 201.182 84.514 201.182 84.0474C201.182 83.3941 201.416 82.9158 201.882 82.6009C202.372 82.2975 203.014 82.1342 203.796 82.1342Z" fill="#0556A5"/>
<path d="M209.784 83.0675C210.064 82.7642 210.356 82.5309 210.671 82.3675C210.974 82.2159 211.301 82.1342 211.65 82.1342C211.989 82.1342 212.304 82.2042 212.584 82.3209C212.864 82.4142 213.074 82.5425 213.237 82.6942C213.61 83.0675 213.797 83.7207 213.797 84.654V88.4803H212.164V84.9806C212.164 84.6073 212.129 84.3157 212.07 84.094C212.035 83.8841 211.942 83.7091 211.79 83.5807C211.627 83.4641 211.417 83.3941 211.137 83.3941C210.601 83.3941 210.251 83.5691 210.064 83.9074C209.877 84.2573 209.784 84.7006 209.784 85.2606V88.4803H208.151V79.9411H209.784V83.0675Z" fill="#0556A5"/>
<path d="M217.129 81.4343H215.45V79.9411H217.129V81.4343ZM217.129 88.4803H215.45V82.2742H217.129V88.4803Z" fill="#0556A5"/>
<path d="M222.363 82.1342C222.702 82.1342 223.017 82.2042 223.297 82.3209C223.577 82.4492 223.787 82.6009 223.95 82.7875C224.137 82.9741 224.253 83.2075 224.323 83.4874C224.382 83.7674 224.417 84.0824 224.417 84.4207V88.4803H222.783V85.1206C222.783 84.5373 222.713 84.094 222.597 83.8141C222.468 83.5341 222.188 83.3941 221.757 83.3941C221.383 83.3941 221.08 83.5224 220.87 83.7674C220.649 83.989 220.52 84.234 220.497 84.514C220.462 84.7006 220.427 84.8756 220.404 85.0273C220.404 85.1906 220.404 85.3539 220.404 85.5406V88.4803H218.77V82.2742H220.31V83.2075C220.497 82.9275 220.754 82.6825 221.104 82.4609C221.442 82.2509 221.862 82.1342 222.363 82.1342Z" fill="#0556A5"/>
<path d="M228.356 82.1342C228.752 82.1342 229.114 82.2276 229.429 82.4142C229.732 82.6009 230 82.8575 230.222 83.1608V82.2742H231.762V87.967C231.762 88.6436 231.68 89.2035 231.529 89.6468C231.365 90.0784 231.074 90.4051 230.642 90.6267C230.199 90.8717 229.592 91 228.822 91C227.819 91 227.096 90.8134 226.629 90.4401C226.162 90.0901 225.929 89.5768 225.929 88.9002L227.796 89.1335C227.819 89.3785 227.912 89.5301 228.076 89.6001C228.227 89.6935 228.461 89.7401 228.775 89.7401C229.265 89.7401 229.615 89.6468 229.802 89.4602C230.012 89.2735 230.129 88.9585 230.129 88.5269V87.4537H230.082C229.895 87.7687 229.627 88.0136 229.289 88.2003C228.974 88.3869 228.636 88.4803 228.262 88.4803C227.761 88.4803 227.306 88.3636 226.909 88.107C226.536 87.827 226.232 87.4537 226.022 86.9871C225.801 86.4971 225.696 85.9488 225.696 85.3539C225.696 84.584 225.836 83.954 226.116 83.4874C226.396 82.9975 226.722 82.6475 227.096 82.4609C227.492 82.2509 227.912 82.1342 228.356 82.1342ZM227.422 85.2606C227.422 85.7972 227.516 86.2405 227.702 86.6138C227.912 86.9637 228.262 87.1271 228.729 87.1271C229.102 87.1271 229.429 86.9871 229.709 86.7071C230.012 86.4271 230.175 85.9605 230.175 85.3072C230.175 84.8173 230.059 84.374 229.849 84.0007C229.627 83.6041 229.254 83.3941 228.729 83.3941C228.227 83.3941 227.889 83.6041 227.702 84.0007C227.516 84.374 227.422 84.794 227.422 85.2606Z" fill="#0556A5"/>
<path d="M238.509 87.0337H242.801V88.4803H236.782V79.9411H238.509V87.0337Z" fill="#0556A5"/>
<path d="M245.714 82.2742H246.834V83.5808H245.714V86.3338C245.714 86.5905 245.726 86.7771 245.761 86.8938C245.784 87.0221 245.831 87.1154 245.901 87.1737C245.959 87.2437 246.052 87.267 246.181 87.267C246.332 87.267 246.554 87.2204 246.834 87.1271L246.974 88.3869C246.811 88.4569 246.612 88.4919 246.367 88.5269C246.111 88.5852 245.901 88.6202 245.714 88.6202C245.399 88.6202 245.119 88.5736 244.874 88.4803C244.617 88.3636 244.454 88.2236 244.361 88.0603C244.232 87.8503 244.151 87.6287 244.127 87.407C244.092 87.1621 244.081 86.8471 244.081 86.4738V83.5808H243.334V82.2742H244.081V81.061L245.714 80.0811V82.2742Z" fill="#0556A5"/>
<path d="M253.658 79.9411V88.4803H252.118V87.5937C251.838 87.967 251.523 88.2353 251.185 88.3869C250.835 88.5386 250.508 88.6202 250.205 88.6202C249.738 88.6202 249.295 88.4919 248.899 88.2469C248.525 88.002 248.21 87.6287 247.965 87.1271C247.709 86.6371 247.592 86.0305 247.592 85.3072C247.592 84.6306 247.709 84.0474 247.965 83.5807C248.21 83.0908 248.525 82.7292 248.899 82.5075C249.295 82.2625 249.738 82.1342 250.205 82.1342C250.917 82.1342 251.523 82.4375 252.025 83.0208V79.9411H253.658ZM249.319 85.4006C249.319 86.0888 249.435 86.5904 249.692 86.8937C249.937 87.1737 250.228 87.3137 250.578 87.3137C250.788 87.3137 251.01 87.267 251.232 87.1737C251.442 87.0571 251.652 86.8354 251.838 86.5205C251.955 86.2405 252.025 85.8205 252.025 85.2606C252.025 84.6773 251.897 84.2224 251.652 83.9074C251.395 83.5691 251.068 83.3941 250.672 83.3941H250.578C250.112 83.4291 249.785 83.6274 249.598 84.0007C249.412 84.374 249.319 84.8406 249.319 85.4006Z" fill="#0556A5"/>
<path d="M256.944 88.4803H255.264V86.8471H256.944V88.4803Z" fill="#0556A5"/>
</g>
<defs>
<clipPath id="clip0_2_651">
<rect width="300" height="91" fill="white"/>
</clipPath>
</defs>
</svg>
